<svg id="Chalice" xmlns="http://www.w3.org/2000/svg" viewBox="0 0 500 500"><defs><style>.cls-1{fill:#c1272d;}.cls-2{fill:#911d22;}</style></defs><title>Realm Icons</title><rect class="cls-1" x="84" y="77.33" width="334.67" height="49.67"/><rect class="cls-2" x="75.36" y="94.47" width="17.28" height="17.28" transform="translate(97.52 -29.2) rotate(45)"/><rect class="cls-2" x="410.03" y="94.47" width="17.28" height="17.28" transform="translate(195.54 -265.84) rotate(45)"/><rect class="cls-2" x="326.69" y="94.47" width="17.28" height="17.28" transform="translate(171.13 -206.92) rotate(45)"/><rect class="cls-2" x="243.36" y="94.47" width="17.28" height="17.28" transform="translate(146.72 -147.99) rotate(45)"/><rect class="cls-2" x="159.36" y="94.47" width="17.28" height="17.28" transform="translate(122.12 -88.59) rotate(45)"/><path class="cls-1" d="M92,130H410s12.33,59.33-125,136H218S99.33,209.33,92,130Z"/><path class="cls-1" d="M222,269h57a16.21,16.21,0,0,1-1.67,8H225S223,277.67,222,269Z"/><rect class="cls-1" x="228" y="279.67" width="46.67" height="91.67"/><polygon class="cls-1" points="225 374 279 374 281.33 381 222 381 225 374"/><path class="cls-1" d="M108,431H396l-9.67-18.83S309.33,401,284,384H220s-27.67,19.33-100.67,26.67Z"/></svg>