<svg id="Hammer" xmlns="http://www.w3.org/2000/svg" viewBox="0 0 500 500"><defs><style>.cls-1{fill:#0071bc;}</style></defs><title>Realm Icons</title><rect class="cls-1" x="205" y="224" width="66" height="223.5"/><polygon points="204.92 251.92 213.13 246.62 262.33 229 271 229 271 235 263 235 214.83 251.92 205 258 204.92 251.92"/><polygon points="204.92 288.92 213.13 283.62 262.33 266 271 266 271 272 263 272 214.83 288.92 205 295 204.92 288.92"/><polygon points="204.92 327.92 213.13 322.62 262.33 305 271 305 271 311 263 311 214.83 327.92 205 334 204.92 327.92"/><polygon points="204.92 364.92 213.13 359.62 262.33 342 271 342 271 348 263 348 214.83 364.92 205 371 204.92 364.92"/><polygon points="204.92 402.92 213.13 397.62 262.33 380 271 380 271 386 263 386 214.83 402.92 205 409 204.92 402.92"/><rect class="cls-1" x="205" y="66" width="66" height="18"/><rect class="cls-1" x="134.5" y="86.5" width="210.25" height="136.25"/><polygon class="cls-1" points="135 223 135 86.5 108 104.57 108 202.93 135 223"/><polygon class="cls-1" points="344 223 344 86.5 371 104.57 371 202.93 344 223"/><rect x="148.75" y="86.5" width="12" height="136.25"/><circle class="cls-1" cx="155" cy="109" r="4"/><circle class="cls-1" cx="155" cy="139" r="4"/><circle class="cls-1" cx="155" cy="170" r="4"/><circle class="cls-1" cx="155" cy="199" r="4"/><rect class="cls-1" x="151" y="84" width="8" height="2.5"/><rect class="cls-1" x="151" y="222.75" width="8" height="2.5"/><rect x="317.75" y="86.5" width="12" height="136.25"/><circle class="cls-1" cx="324" cy="109" r="4"/><circle class="cls-1" cx="324" cy="139" r="4"/><circle class="cls-1" cx="324" cy="170" r="4"/><circle class="cls-1" cx="324" cy="199" r="4"/><rect class="cls-1" x="320" y="84" width="8" height="2.5"/><rect class="cls-1" x="320" y="222.75" width="8" height="2.5"/></svg>