<svg id="Tree" xmlns="http://www.w3.org/2000/svg" viewBox="0 0 500 500"><defs><style>.cls-1{fill:#009245;}.cls-2{fill:#006837;}</style></defs><title>Realm Icons</title><path class="cls-1" d="M208,88.5c-1.17,1.9-3.79,2.22-6,2.5-6.49.81-8.48-2.77-15-2.5a15.09,15.09,0,0,0-9,3c-3.19,2.58-4.15,6.1-5.5,11a72,72,0,0,0-2,12s-3.15,2.91-5,2.5c-2.22-.5-1.26-5.49-4-10-3.19-5.27-10.49-8.37-13-6.5-3.28,2.46,2.28,13-1.5,15.5-1.65,1.1-3.38-.48-7,1-2.25.92-2.25,1.8-4.5,3-4.18,2.23-6.47.43-9,2-3.32,2.07-4.06,8.13-3,12.5,2.17,9,12.45,13.3,12,14s-7.81-3.36-18.5-7c-3.7-1.26-6.94-2.19-10.5-1a12.44,12.44,0,0,0-6,4.5,13,13,0,0,0-2,11.5c1.05,3.07,3,4,2.5,5-0.69,1.29-4.49.16-13,0-3.42-.06-4.65.09-5.5,1-1.71,1.83-.72,5.42,0,8,1.61,5.81,4.05,7,3.5,9.5-0.44,2-2.44,3.24-8,5.5-12.65,5.13-16.76,4.52-17.5,7-1.21,4,9.39,6.77,12,17.5,0.7,2.86.57,5.22,2.5,6.5,3,2,6.51-1.45,10.5.5,3.23,1.58,4.76,5.7,4,6.5S85,220.78,83,222s-1.5,6.25.5,10c3.22,6,10.41,8,14,9,7.9,2.17,11.09.14,19,3.5,4.4,1.87,5.72,3.47,6,5,0.53,2.93-2.9,4.88-2,7s5.61,2.41,7.5,2.5c4,0.18,5.52-1,6.5,0,2.07,2-3,8.38-1,10.5,0.87,0.92,4.59.29,12-1,2.81-.49,4-0.74,5,0,2.3,1.66.38,5.73,2.5,7.5s4.83-1.33,9-.5c5.74,1.14,9,8.61,10,11,3,7,1.21,10.95,3.5,12,3.69,1.7,7.79-8.75,18.5-10.5,5.41-.88,7.47,1.27,11.5-1,3.65-2.06,3.59-4.74,8.5-7.5,1.94-1.09,4.54-2.56,7.5-2,3.76,0.71,3.94,3.89,6.5,4,3.87,0.17,4.7-7.05,12.5-11.5,2.1-1.2,3.76-2.14,6-2,3.75,0.24,4.86,3.27,10,5,3.11,1,3.35.16,6.5,1,6.66,1.77,6.85,6.06,11.5,7.5,7.07,2.18,11-6.36,19-4.5,4.87,1.13,4.16,4.48,10,6.5s10.88,0.36,18.5-2c5.69-1.77,9.14-2.89,10.5-6,1.52-3.46-.57-7,1-8s4,2.88,7.5,2.5c3.75-.41,4.11-5.24,9.5-9.5,3.27-2.59,4-1.48,10-4.5,4.18-2.1,13.82-6.94,13.5-12-0.26-4.08-6.9-6.84-6.5-7.5s6.29,4,10,2c2.71-1.43,1.38-4.84,5-9,2.45-2.82,3.89-2.2,6.5-5,3.4-3.65,2.09-5.9,4.5-9.5,4.33-6.47,11.48-3.56,16-10,2.2-3.14,3.38-7.93,1.5-10.5s-5.44-.52-10-3c-6.16-3.36-7.92-11.74-8.5-14.5a69.65,69.65,0,0,1-1-12.5c0.06-4.43.52-6.89-1-8-1.71-1.25-3.78.81-8,.5-0.28,0-4.62-.39-7.5-3-5.15-4.68-1.82-13.09-5-14.5-3.35-1.49-9,6.93-11.5,5.5-2.21-1.27,1.88-8.25-1.5-13-2.24-3.14-5.13-1.63-9.5-4.5-7.87-5.16-6.17-15.09-11-16-4.16-.79-6.66,6.36-13.5,6-1.11-.06-3.92-0.21-5-2-2.34-3.9,6.6-10.43,4.5-15-1.32-2.87-6.58-4-10.5-3-5.49,1.47-5.25,6.49-11.5,10S286,110.35,285,108c-0.7-1.65,1.36-6,4-7.52a1.82,1.82,0,0,0,1-1c0.37-1.36-2.29-2.3-3-4.5s1.45-3.48,1.5-6c0.09-4.29-6.12-9.29-12-9.5-3.44-.12-4,1.5-9,3-7.17,2.14-13.55,1.07-17,.5-8.56-1.42-9.1-4.21-16-4-3.42.11-4.92,0.84-8,0-4.31-1.18-4.71-3.53-8.5-4.5s-9.46,0-11,3C205.19,81,210,85.18,208,88.5Z"/><path class="cls-1" d="M211.25,286.75c0.16,1.18,1.36,1.39,1.5,3,0.11,1.33-.65,1.84-1,3.75a11.49,11.49,0,0,0,0,3.25,48.14,48.14,0,0,0,.75,7c0.76,2.33,1.77,2.65,4,5.75a41.58,41.58,0,0,1,4,7.25c4.4,9,17.49,29.11,22,36.75a8.28,8.28,0,0,1,1,2.5,10.13,10.13,0,0,1-.5,5.25c-1.42,5.2,1.43,6.48,0,10.5-1.08,3-2.71,2.34-5.25,6.5-2.19,3.58-1.64,5.18-3.25,8.25-2.17,4.13-5.76,6.17-8.5,7.75-10.93,6.32-24.56,14.2-34.75,23.25-5.4,4.8-10.5,10.51-11.25,18,0,0.46-.55,5.84,1.25,6.5s4.79-4.66,10-10c4.26-4.37,8-6.51,15.25-10.75a115.37,115.37,0,0,1,36-13.5,72.05,72.05,0,0,1,24,.5,8.13,8.13,0,0,1,3.25,1.25c3.27,2.23,2.54,5.64,4.75,8.5,2.49,3.23,6,2.22,11.5,4.25,3,1.12,6.1,3.86,12.25,9.25,7.54,6.62,11.31,9.92,14.5,15.5,1.23,2.16,2,3.89,2.5,3.75,1.15-.3,1.69-9.09-2-17-3.25-7-8.72-11-13.75-19.5-0.21-.36-0.73-1.24-1.5-2.5-4.67-7.61-5.49-8.52-6-9-3.24-3-7.06-3.31-7-3.5s6.25,1.84,13.75,3.5c6.95,1.54,8.53,1.27,15,2.75,6.31,1.45,6.71,2.14,12,3.5,16.36,4.21,33.58,3.16,38,.75a5.42,5.42,0,0,1,3-.75c2.06,0.14,3.12,1.64,4.5,2.75,0.88,0.7,2.21,1.51,17.75,2,1.58,0.05,2.4.07,2.5-.25,0.3-1-6.54-3.73-14.5-7.5-12.79-6.05-10.21-6.06-16.5-8.5-6.51-2.52-17.82-6.91-25.25-6.5a6.77,6.77,0,0,1-4-.75c-2.26-1.33-2.37-3.65-4.25-6.75-1-1.69-1.57-2-4.75-5.25-6.74-7-12.25-14-12.25-14a26.53,26.53,0,0,1-1.25-3.25c-0.59-2.39,1-4,1.75-6.25,1.11-3.57-.65-7.08-2-9.75-1.92-3.8-4.93-6.58-9.75-11a15.27,15.27,0,0,1-2-2c-2.29-2.92-2-5.38-3.5-9.25a43.65,43.65,0,0,0-2.75-5,109.92,109.92,0,0,0-8.5-13c-3-3.78-4.34-4.85-4.5-7.25a29.24,29.24,0,0,0-.37-5,13.92,13.92,0,0,0-.87-3.12,18.08,18.08,0,0,1-1-2.12c-0.49-1.85.62-2.51,0.25-3.62-0.68-2.07-4.9-.92-7.12-3.75-1.13-1.45-.51-2.35-1.75-3.25a5.36,5.36,0,0,0-5.62,0,5.84,5.84,0,0,1-1.87,1.25,3.79,3.79,0,0,1-2.37-.12c-0.46-.19-1.07-0.55-2.25-2.25-1-1.43-1.25-2.17-1.62-2.75-1.57-2.43-6.2-3.55-9.12-2.12-2.1,1-1.53,2.47-4.37,5.88a17,17,0,0,1-7.75,5.63c-1.32.43-4.2,1.36-6.87,0.13-1.5-.69-1.43-1.36-2.62-1.87C218.05,278.63,210.82,283.69,211.25,286.75Z"/><path class="cls-2" d="M170.84,94c0.39-.77.56,2.2,1.62,3.35,0.65,0.7,1.35,1.13,3.61,2.19s3.84,1.71,3.91,1.74c1.65,0.68,5.48,2.27,7.92,5.84a14.15,14.15,0,0,1,2.26,8.56,5.93,5.93,0,0,1-.88,3.59,6,6,0,0,1-4.41,2.12c-4.14.36-7.37-2.87-8.4-3.9-2.39-2.39-3.34-4.9-4.46-8A39.56,39.56,0,0,1,169.69,98,11.2,11.2,0,0,1,170.84,94Z"/><path class="cls-2" d="M248.08,51.17c-1-1,0,3.68-1.17,5.92-0.73,1.37-1.67,2.32-4.83,4.92s-5.4,4.26-5.5,4.33c-2.35,1.76-7.77,5.81-10.17,12.42a22.53,22.53,0,0,0,0,14.33c1,3.51,2.24,4.7,2.92,5.25,2.91,2.35,6.83,1.69,7.92,1.5C244,98.69,247.79,92.3,249,90.25c2.81-4.73,3.26-9,3.75-14.33a63,63,0,0,0-1.17-19A18.05,18.05,0,0,0,248.08,51.17Z"/><path class="cls-2" d="M81.66,224c0-.87,1.54,1.66,3,2.17,0.9,0.31,1.72.35,4.22,0.2s4.19-.34,4.26-0.34c1.78-.19,5.89-0.62,9.75,1.35a14.15,14.15,0,0,1,6.07,6.44,5.93,5.93,0,0,1,.94,3.57,6,6,0,0,1-2.86,4c-3.46,2.29-7.84,1-9.25.59-3.24-1-5.27-2.71-7.73-4.88a39.56,39.56,0,0,1-7.54-9A11.2,11.2,0,0,1,81.66,224Z"/><path class="cls-2" d="M176,300.06c-0.86.1,1.52-1.69,1.89-3.21,0.23-.93.19-1.75-0.18-4.22s-0.71-4.14-.73-4.22c-0.35-1.76-1.15-5.81.46-9.83a14.15,14.15,0,0,1,5.87-6.63,5.93,5.93,0,0,1,3.47-1.26A6,6,0,0,1,191,273.2c2.59,3.24,1.7,7.72,1.42,9.16-0.66,3.32-2.22,5.49-4.16,8.14a39.56,39.56,0,0,1-8.31,8.32A11.2,11.2,0,0,1,176,300.06Z"/><path class="cls-2" d="M306.35,291.77c0.86,0-1.65-1.46-2.15-2.91-0.3-.89-0.34-1.7-0.18-4.19s0.35-4.19.36-4.27c0.19-1.78.64-5.91-1.3-9.66a13.08,13.08,0,0,0-6.37-5.75,5.7,5.7,0,0,0-3.54-.77,6.4,6.4,0,0,0-4,3c-2.29,3.56-1,7.87-.62,9.25,0.94,3.19,2.67,5.13,4.81,7.48a36.5,36.5,0,0,0,8.93,7.09A10.73,10.73,0,0,0,306.35,291.77Z"/><path class="cls-2" d="M174.66,338c0.72-.14-1.59-1-2.21-2.13a8.72,8.72,0,0,1-.75-3.49c-0.21-2-.3-3.56-0.31-3.62a14.39,14.39,0,0,0-2.46-7.9,11.11,11.11,0,0,0-6.15-3.91,4.84,4.84,0,0,0-3.08-.14,5.43,5.43,0,0,0-2.88,3.1c-1.41,3.3.26,6.73,0.8,7.83,1.24,2.54,3,3.92,5.1,5.58a31,31,0,0,0,8.49,4.67A9.12,9.12,0,0,0,174.66,338Z"/><path class="cls-2" d="M404.26,167.31c-0.52-.8-0.38,2.45-1.42,3.81-0.64.83-1.37,1.37-3.76,2.75s-4.06,2.25-4.14,2.29c-1.75.91-5.81,3-8.13,7.16a15.21,15.21,0,0,0-1.56,9.55c0.3,2.45,1,3.38,1.37,3.81,1.68,1.88,4.36,1.87,5.11,1.86,4.61,0,7.84-3.87,8.87-5.1,2.39-2.84,3.16-5.67,4.06-9.14a42.49,42.49,0,0,0,1.3-12.78A12.18,12.18,0,0,0,404.26,167.31Z"/></svg>